<?xml version="1.0" encoding="UTF-8" standalone="no"?>
<!DOCTYPE svg PUBLIC "-//W3C//DTD SVG 1.1//EN" "http://www.w3.org/Graphics/SVG/1.1/DTD/svg11.dtd">
<svg width="100%" height="100%" viewBox="0 0 200 150" version="1.1" xmlns="http://www.w3.org/2000/svg" xmlns:xlink="http://www.w3.org/1999/xlink" xml:space="preserve" xmlns:serif="http://www.serif.com/" style="fill-rule:evenodd;clip-rule:evenodd;stroke-linejoin:round;stroke-miterlimit:2;">
    <g transform="matrix(1,0,0,1,-1020,-1090)">
        <g id="Final--2" serif:id="Final #2" transform="matrix(0.952381,0,0,1.01351,48.5714,-16.7568)">
            <rect x="1020" y="1092" width="210" height="148" style="fill:none;"/>
            <g>
                <g transform="matrix(2.63563,0,0,2.07719,-1491.25,1037.19)">
                    <path d="M982.606,64.203L979.5,68.024L976.394,64.203L979.239,56.431L979.761,56.431L982.606,64.203ZM977.81,63.897L979.5,65.976L981.19,63.897L979.5,59.281L977.81,63.897Z"/>
                </g>
                <g transform="matrix(2.625,2.635e-17,-1.29352e-17,-1.0386,-1480.84,1217.33)">
                    <path d="M982.1,62.515L979.5,57.575L976.9,62.515L976.9,67.475L982.1,67.475L982.1,62.515ZM978.1,64.625L978.1,63.885L979.5,61.225L980.9,63.885L980.9,64.625L978.1,64.625Z"/>
                </g>
                <g transform="matrix(0.896341,0,0,0.784848,115.579,1119.69)">
                    <path d="M1109.76,82.886L1065.24,82.886L1065.24,35.114L1109.76,35.114L1109.76,82.886ZM1068.76,38.886L1068.76,79.114L1106.24,79.114L1106.24,38.886L1068.76,38.886Z"/>
                </g>
                <g transform="matrix(1.05,0,0,1.1746,31.425,1106.73)">
                    <path d="M1048.5,57.604L1048.5,57.67L1048.5,57.74L1048.5,57.81L1048.49,57.88L1048.49,57.95L1048.48,58.018L1048.47,58.088L1048.47,58.158L1048.46,58.224L1048.45,58.294L1048.44,58.363L1048.42,58.43L1048.41,58.498L1048.4,58.565L1048.38,58.632L1048.37,58.699L1048.35,58.765L1048.33,58.832L1048.32,58.898L1048.3,58.963L1048.28,59.029L1048.25,59.095L1048.23,59.159L1048.21,59.223L1048.18,59.288L1048.16,59.351L1048.13,59.414L1048.11,59.477L1048.08,59.541L1048.05,59.606L1047.99,59.725L1047.92,59.847L1047.86,59.968L1047.79,60.087L1047.71,60.204L1047.64,60.319L1047.56,60.432L1047.47,60.544L1047.39,60.654L1047.3,60.762L1047.21,60.867L1047.11,60.971L1047.02,61.074L1046.91,61.174L1046.81,61.271L1046.7,61.368L1046.6,61.461L1046.49,61.552L1046.37,61.642L1046.25,61.728L1046.14,61.813L1046.01,61.895L1045.89,61.975L1045.76,62.052L1045.63,62.127L1045.5,62.199L1045.37,62.269L1045.24,62.336L1045.1,62.4L1044.96,62.462L1044.82,62.521L1044.68,62.577L1044.53,62.631L1044.39,62.679L1044.31,62.705L1044.23,62.729L1044.16,62.751L1044.09,62.773L1044.01,62.794L1043.93,62.814L1043.86,62.834L1043.78,62.853L1043.7,62.871L1043.62,62.888L1043.55,62.905L1043.47,62.92L1043.39,62.935L1043.31,62.949L1043.23,62.962L1043.15,62.975L1043.07,62.986L1042.99,62.997L1042.91,63.007L1042.83,63.016L1042.74,63.025L1042.66,63.032L1042.58,63.038L1042.5,63.044L1042.42,63.049L1042.33,63.053L1042.25,63.056L1042.17,63.058L1042.08,63.06L1040.51,63.067L1040.49,60.547L1042.05,60.54L1042.09,60.539L1042.14,60.538L1042.18,60.536L1042.23,60.534L1042.27,60.531L1042.32,60.528L1042.36,60.525L1042.4,60.521L1042.45,60.516L1042.49,60.511L1042.54,60.506L1042.58,60.5L1042.62,60.494L1042.66,60.487L1042.71,60.48L1042.75,60.472L1042.79,60.465L1042.83,60.456L1042.88,60.448L1042.92,60.438L1042.96,60.428L1043,60.419L1043.04,60.408L1043.08,60.397L1043.12,60.386L1043.16,60.374L1043.2,60.362L1043.24,60.35L1043.28,60.338L1043.36,60.309L1043.44,60.281L1043.52,60.251L1043.59,60.219L1043.67,60.186L1043.74,60.151L1043.81,60.115L1043.89,60.077L1043.96,60.039L1044.03,59.998L1044.09,59.956L1044.16,59.913L1044.22,59.869L1044.29,59.823L1044.35,59.776L1044.41,59.728L1044.47,59.679L1044.53,59.628L1044.59,59.577L1044.65,59.524L1044.7,59.47L1044.75,59.415L1044.81,59.359L1044.86,59.301L1044.9,59.243L1044.95,59.184L1044.99,59.124L1045.04,59.062L1045.08,59L1045.12,58.937L1045.16,58.874L1045.19,58.809L1045.22,58.744L1045.26,58.674L1045.27,58.644L1045.29,58.611L1045.3,58.578L1045.32,58.543L1045.33,58.508L1045.34,58.475L1045.36,58.44L1045.37,58.405L1045.38,58.371L1045.39,58.337L1045.4,58.301L1045.41,58.265L1045.42,58.23L1045.43,58.194L1045.44,58.158L1045.44,58.122L1045.45,58.086L1045.46,58.049L1045.47,58.012L1045.47,57.976L1045.48,57.94L1045.48,57.901L1045.49,57.865L1045.49,57.828L1045.49,57.79L1045.5,57.752L1045.5,57.714L1045.5,57.677L1045.5,57.638L1045.5,57.596L1045.5,43.74L1048.5,43.74L1048.5,57.604Z"/>
                </g>
                <g transform="matrix(1.05,0,0,0.939683,57.675,1112.37)">
                    <rect x="1045.5" y="43.425" width="3" height="24.15"/>
                </g>
                <g transform="matrix(1.05,0,0,0.657778,78.675,1130.97)">
                    <rect x="1045.5" y="42.75" width="3" height="25.5"/>
                </g>
                <g transform="matrix(1.05,0,0,0.986667,36.675,1115.19)">
                    <path d="M1054.62,43.501L1054.73,43.503L1054.85,43.507L1054.96,43.512L1055.08,43.518L1055.19,43.526L1055.31,43.536L1055.42,43.546L1055.53,43.559L1055.64,43.572L1055.76,43.587L1055.87,43.604L1055.98,43.622L1056.09,43.641L1056.2,43.661L1056.31,43.683L1056.42,43.706L1056.53,43.731L1056.64,43.757L1056.75,43.784L1056.86,43.812L1056.96,43.842L1057.07,43.873L1057.17,43.905L1057.28,43.939L1057.39,43.974L1057.49,44.01L1057.59,44.047L1057.7,44.086L1057.8,44.125L1057.9,44.166L1058,44.208L1058.1,44.252L1058.2,44.296L1058.3,44.342L1058.4,44.389L1058.5,44.437L1058.6,44.486L1058.69,44.536L1058.79,44.588L1058.88,44.64L1058.98,44.694L1059.07,44.749L1059.17,44.804L1059.26,44.861L1059.35,44.92L1059.44,44.979L1059.53,45.039L1059.62,45.1L1059.71,45.162L1059.8,45.226L1059.88,45.29L1059.97,45.355L1060.06,45.421L1060.14,45.489L1060.22,45.557L1060.31,45.626L1060.39,45.696L1060.47,45.767L1060.55,45.839L1060.63,45.913L1060.71,45.987L1060.79,46.061L1060.86,46.137L1060.94,46.214L1061.01,46.291L1061.09,46.369L1061.16,46.45L1061.23,46.53L1061.3,46.611L1061.37,46.693L1061.44,46.776L1061.51,46.859L1061.58,46.944L1061.64,47.029L1061.71,47.115L1061.77,47.202L1061.84,47.29L1061.9,47.379L1061.96,47.468L1062.02,47.558L1062.08,47.649L1062.14,47.741L1062.2,47.834L1062.25,47.926L1062.31,48.02L1062.36,48.115L1062.41,48.21L1062.46,48.306L1062.51,48.403L1062.56,48.5L1062.61,48.598L1062.66,48.697L1062.7,48.796L1062.75,48.896L1062.79,48.997L1062.83,49.099L1062.88,49.2L1062.91,49.303L1062.95,49.407L1062.99,49.51L1063.03,49.614L1063.06,49.72L1063.1,49.825L1063.13,49.93L1063.16,50.037L1063.19,50.145L1063.22,50.253L1063.24,50.36L1063.27,50.469L1063.29,50.579L1063.32,50.688L1063.34,50.798L1063.36,50.909L1063.38,51.02L1063.4,51.131L1063.41,51.244L1063.43,51.356L1063.44,51.469L1063.45,51.582L1063.46,51.695L1063.47,51.81L1063.48,51.924L1063.49,52.038L1063.49,52.153L1063.5,52.269L1063.5,52.384L1063.5,52.5L1063.5,52.616L1063.5,52.731L1063.49,52.847L1063.49,52.962L1063.48,53.076L1063.47,53.19L1063.46,53.305L1063.45,53.418L1063.44,53.531L1063.43,53.644L1063.41,53.756L1063.4,53.869L1063.38,53.98L1063.36,54.091L1063.34,54.201L1063.32,54.312L1063.29,54.421L1063.27,54.531L1063.24,54.64L1063.22,54.747L1063.19,54.855L1063.16,54.963L1063.13,55.07L1063.1,55.174L1063.06,55.281L1063.03,55.386L1062.99,55.49L1062.95,55.594L1062.91,55.697L1062.88,55.8L1062.83,55.902L1062.79,56.003L1062.75,56.104L1062.7,56.204L1062.66,56.303L1062.61,56.402L1062.56,56.5L1062.51,56.597L1062.46,56.694L1062.41,56.79L1062.36,56.885L1062.31,56.98L1062.25,57.074L1062.2,57.166L1062.14,57.26L1062.08,57.351L1062.02,57.442L1061.96,57.532L1061.9,57.621L1061.84,57.71L1061.78,57.797L1061.71,57.885L1061.64,57.971L1061.58,58.056L1061.51,58.141L1061.44,58.224L1061.37,58.307L1061.3,58.39L1061.23,58.47L1061.16,58.55L1061.09,58.63L1061.01,58.708L1060.94,58.786L1060.86,58.863L1060.79,58.939L1060.71,59.014L1060.63,59.088L1060.55,59.16L1060.47,59.233L1060.39,59.304L1060.31,59.374L1060.22,59.443L1060.14,59.512L1060.06,59.579L1059.97,59.645L1059.88,59.71L1059.8,59.774L1059.71,59.838L1059.62,59.9L1059.53,59.961L1059.44,60.021L1059.35,60.08L1059.26,60.138L1059.17,60.195L1059.07,60.251L1058.98,60.306L1058.88,60.36L1058.79,60.412L1058.69,60.464L1058.6,60.514L1058.5,60.563L1058.4,60.611L1058.3,60.658L1058.2,60.704L1058.1,60.748L1058,60.791L1057.9,60.834L1057.8,60.875L1057.7,60.914L1057.59,60.953L1057.49,60.99L1057.38,61.026L1057.28,61.061L1057.17,61.095L1057.07,61.127L1056.96,61.158L1056.86,61.188L1056.75,61.216L1056.64,61.244L1056.53,61.269L1056.42,61.294L1056.31,61.317L1056.2,61.339L1056.09,61.359L1055.98,61.379L1055.87,61.396L1055.76,61.413L1055.64,61.428L1055.53,61.441L1055.42,61.454L1055.31,61.464L1055.19,61.474L1055.08,61.482L1054.96,61.488L1054.85,61.493L1054.73,61.497L1054.62,61.499L1054.5,61.5L1054.38,61.499L1054.27,61.497L1054.15,61.493L1054.04,61.488L1053.92,61.482L1053.81,61.474L1053.69,61.464L1053.58,61.454L1053.47,61.441L1053.36,61.428L1053.24,61.413L1053.13,61.396L1053.02,61.379L1052.91,61.359L1052.8,61.339L1052.69,61.317L1052.58,61.294L1052.47,61.269L1052.36,61.244L1052.25,61.216L1052.14,61.188L1052.04,61.158L1051.93,61.127L1051.83,61.095L1051.72,61.061L1051.62,61.026L1051.51,60.99L1051.41,60.953L1051.3,60.915L1051.2,60.875L1051.1,60.834L1051,60.791L1050.9,60.748L1050.8,60.704L1050.7,60.658L1050.6,60.611L1050.5,60.563L1050.4,60.514L1050.31,60.464L1050.21,60.412L1050.12,60.36L1050.02,60.306L1049.93,60.251L1049.83,60.195L1049.74,60.138L1049.65,60.08L1049.56,60.021L1049.47,59.961L1049.38,59.9L1049.29,59.838L1049.2,59.774L1049.12,59.71L1049.03,59.645L1048.94,59.579L1048.86,59.512L1048.78,59.443L1048.69,59.374L1048.61,59.304L1048.53,59.233L1048.45,59.16L1048.37,59.088L1048.29,59.014L1048.21,58.939L1048.14,58.863L1048.06,58.786L1047.99,58.708L1047.91,58.63L1047.84,58.551L1047.77,58.47L1047.7,58.39L1047.63,58.307L1047.56,58.224L1047.49,58.141L1047.42,58.056L1047.36,57.971L1047.29,57.885L1047.23,57.798L1047.16,57.71L1047.1,57.621L1047.04,57.532L1046.98,57.442L1046.92,57.351L1046.86,57.26L1046.81,57.167L1046.75,57.074L1046.69,56.98L1046.64,56.885L1046.59,56.79L1046.54,56.694L1046.49,56.597L1046.44,56.5L1046.39,56.402L1046.34,56.304L1046.3,56.203L1046.25,56.103L1046.21,56.003L1046.17,55.902L1046.13,55.8L1046.09,55.697L1046.05,55.594L1046.01,55.49L1045.97,55.385L1045.94,55.281L1045.9,55.175L1045.87,55.069L1045.84,54.962L1045.81,54.856L1045.78,54.748L1045.76,54.639L1045.73,54.531L1045.71,54.422L1045.68,54.312L1045.66,54.201L1045.64,54.091L1045.62,53.98L1045.6,53.869L1045.59,53.756L1045.57,53.644L1045.56,53.531L1045.55,53.418L1045.54,53.305L1045.53,53.191L1045.52,53.076L1045.51,52.962L1045.51,52.847L1045.5,52.731L1045.5,52.616L1045.5,52.5L1045.5,52.384L1045.5,52.269L1045.51,52.153L1045.51,52.038L1045.52,51.924L1045.53,51.809L1045.54,51.695L1045.55,51.582L1045.56,51.469L1045.57,51.356L1045.59,51.244L1045.6,51.131L1045.62,51.02L1045.64,50.909L1045.66,50.798L1045.68,50.688L1045.71,50.578L1045.73,50.469L1045.76,50.361L1045.78,50.252L1045.81,50.144L1045.84,50.038L1045.87,49.931L1045.9,49.825L1045.94,49.72L1045.97,49.615L1046.01,49.51L1046.05,49.407L1046.09,49.303L1046.13,49.2L1046.17,49.098L1046.21,48.997L1046.25,48.897L1046.3,48.797L1046.34,48.696L1046.39,48.598L1046.44,48.501L1046.49,48.403L1046.54,48.306L1046.59,48.21L1046.64,48.115L1046.69,48.02L1046.75,47.926L1046.81,47.833L1046.86,47.741L1046.92,47.649L1046.98,47.558L1047.04,47.468L1047.1,47.379L1047.16,47.29L1047.23,47.202L1047.29,47.115L1047.36,47.029L1047.42,46.944L1047.49,46.86L1047.56,46.776L1047.63,46.693L1047.7,46.611L1047.77,46.529L1047.84,46.449L1047.91,46.37L1047.99,46.292L1048.06,46.214L1048.14,46.137L1048.21,46.061L1048.29,45.986L1048.37,45.913L1048.45,45.839L1048.53,45.767L1048.61,45.697L1048.69,45.626L1048.78,45.557L1048.86,45.489L1048.94,45.421L1049.03,45.355L1049.12,45.29L1049.2,45.225L1049.29,45.162L1049.38,45.1L1049.47,45.039L1049.56,44.979L1049.65,44.92L1049.74,44.862L1049.83,44.804L1049.93,44.749L1050.02,44.694L1050.12,44.64L1050.21,44.588L1050.31,44.536L1050.4,44.486L1050.5,44.437L1050.6,44.389L1050.7,44.342L1050.8,44.296L1050.9,44.252L1051,44.208L1051.1,44.166L1051.2,44.125L1051.3,44.085L1051.41,44.047L1051.51,44.01L1051.61,43.974L1051.72,43.939L1051.83,43.905L1051.93,43.873L1052.04,43.842L1052.14,43.812L1052.25,43.784L1052.36,43.757L1052.47,43.731L1052.58,43.706L1052.69,43.683L1052.8,43.661L1052.91,43.641L1053.02,43.622L1053.13,43.604L1053.24,43.587L1053.36,43.572L1053.47,43.559L1053.58,43.546L1053.69,43.536L1053.81,43.526L1053.92,43.518L1054.04,43.512L1054.15,43.507L1054.27,43.503L1054.38,43.501L1054.5,43.5L1054.62,43.501ZM1054.42,46.501L1054.34,46.502L1054.27,46.504L1054.19,46.508L1054.11,46.512L1054.04,46.518L1053.96,46.524L1053.88,46.531L1053.81,46.539L1053.74,46.548L1053.66,46.558L1053.59,46.569L1053.51,46.581L1053.44,46.594L1053.36,46.608L1053.29,46.622L1053.22,46.638L1053.14,46.654L1053.07,46.671L1053,46.689L1052.93,46.708L1052.86,46.727L1052.79,46.748L1052.72,46.77L1052.65,46.792L1052.58,46.815L1052.51,46.839L1052.44,46.864L1052.37,46.889L1052.3,46.916L1052.23,46.943L1052.17,46.971L1052.1,47L1052.03,47.03L1051.97,47.06L1051.9,47.091L1051.84,47.123L1051.77,47.156L1051.71,47.19L1051.64,47.224L1051.58,47.259L1051.52,47.294L1051.45,47.331L1051.39,47.369L1051.33,47.406L1051.27,47.445L1051.21,47.484L1051.15,47.524L1051.09,47.565L1051.03,47.607L1050.97,47.649L1050.91,47.692L1050.86,47.736L1050.8,47.78L1050.74,47.824L1050.68,47.87L1050.63,47.917L1050.58,47.963L1050.52,48.012L1050.47,48.06L1050.41,48.108L1050.36,48.158L1050.31,48.208L1050.26,48.258L1050.21,48.309L1050.16,48.362L1050.11,48.414L1050.06,48.467L1050.01,48.521L1049.96,48.575L1049.92,48.63L1049.87,48.685L1049.83,48.741L1049.78,48.798L1049.74,48.855L1049.69,48.912L1049.65,48.971L1049.61,49.029L1049.57,49.088L1049.53,49.148L1049.48,49.208L1049.44,49.269L1049.41,49.33L1049.37,49.391L1049.33,49.454L1049.29,49.516L1049.26,49.579L1049.22,49.643L1049.19,49.707L1049.16,49.771L1049.12,49.835L1049.09,49.901L1049.06,49.967L1049.03,50.033L1049,50.099L1048.97,50.167L1048.94,50.234L1048.92,50.302L1048.89,50.37L1048.86,50.438L1048.84,50.507L1048.82,50.577L1048.79,50.646L1048.77,50.717L1048.75,50.787L1048.73,50.858L1048.71,50.929L1048.69,51.001L1048.67,51.072L1048.65,51.145L1048.64,51.218L1048.62,51.29L1048.61,51.363L1048.59,51.437L1048.58,51.511L1048.57,51.585L1048.56,51.66L1048.55,51.734L1048.54,51.81L1048.53,51.885L1048.52,51.961L1048.52,52.037L1048.51,52.113L1048.51,52.191L1048.5,52.267L1048.5,52.344L1048.5,52.422L1048.5,52.5L1048.5,52.578L1048.5,52.656L1048.5,52.733L1048.51,52.81L1048.51,52.887L1048.52,52.963L1048.52,53.039L1048.53,53.115L1048.54,53.19L1048.55,53.266L1048.56,53.34L1048.57,53.414L1048.58,53.489L1048.59,53.563L1048.61,53.636L1048.62,53.71L1048.64,53.782L1048.65,53.855L1048.67,53.928L1048.69,53.999L1048.71,54.071L1048.73,54.142L1048.75,54.213L1048.77,54.283L1048.79,54.354L1048.82,54.423L1048.84,54.493L1048.86,54.562L1048.89,54.63L1048.92,54.698L1048.94,54.765L1048.97,54.833L1049,54.901L1049.03,54.968L1049.06,55.033L1049.09,55.099L1049.12,55.164L1049.16,55.229L1049.19,55.294L1049.22,55.357L1049.26,55.421L1049.29,55.484L1049.33,55.547L1049.37,55.609L1049.41,55.67L1049.44,55.731L1049.48,55.792L1049.53,55.852L1049.57,55.912L1049.61,55.971L1049.65,56.029L1049.69,56.088L1049.74,56.145L1049.78,56.202L1049.83,56.259L1049.87,56.315L1049.92,56.37L1049.96,56.424L1050.01,56.479L1050.06,56.533L1050.11,56.586L1050.16,56.639L1050.21,56.691L1050.26,56.742L1050.31,56.792L1050.36,56.842L1050.41,56.892L1050.47,56.941L1050.52,56.989L1050.58,57.037L1050.63,57.084L1050.68,57.13L1050.74,57.175L1050.8,57.22L1050.86,57.264L1050.91,57.308L1050.97,57.351L1051.03,57.393L1051.09,57.435L1051.15,57.475L1051.21,57.516L1051.27,57.555L1051.33,57.594L1051.39,57.632L1051.45,57.669L1051.52,57.706L1051.58,57.741L1051.64,57.776L1051.71,57.81L1051.77,57.844L1051.84,57.877L1051.9,57.909L1051.97,57.94L1052.03,57.97L1052.1,58L1052.17,58.029L1052.24,58.057L1052.3,58.084L1052.37,58.111L1052.44,58.136L1052.51,58.161L1052.58,58.185L1052.65,58.208L1052.72,58.23L1052.79,58.252L1052.86,58.272L1052.93,58.292L1053,58.311L1053.07,58.329L1053.14,58.346L1053.22,58.363L1053.29,58.378L1053.36,58.393L1053.44,58.406L1053.51,58.419L1053.59,58.431L1053.66,58.442L1053.73,58.452L1053.81,58.461L1053.88,58.469L1053.96,58.476L1054.04,58.482L1054.11,58.488L1054.19,58.492L1054.27,58.496L1054.34,58.498L1054.42,58.499L1054.5,58.5L1054.58,58.499L1054.66,58.498L1054.73,58.496L1054.81,58.492L1054.89,58.488L1054.96,58.482L1055.04,58.476L1055.12,58.469L1055.19,58.461L1055.27,58.452L1055.34,58.442L1055.41,58.431L1055.49,58.419L1055.56,58.406L1055.64,58.393L1055.71,58.378L1055.78,58.363L1055.86,58.346L1055.93,58.329L1056,58.311L1056.07,58.292L1056.14,58.272L1056.21,58.252L1056.28,58.23L1056.35,58.208L1056.42,58.185L1056.49,58.161L1056.56,58.136L1056.63,58.111L1056.7,58.084L1056.77,58.057L1056.83,58.029L1056.9,58L1056.97,57.97L1057.03,57.94L1057.1,57.909L1057.16,57.877L1057.23,57.844L1057.29,57.811L1057.36,57.776L1057.42,57.741L1057.48,57.706L1057.55,57.669L1057.61,57.632L1057.67,57.594L1057.73,57.555L1057.79,57.516L1057.85,57.475L1057.91,57.434L1057.97,57.393L1058.03,57.351L1058.09,57.308L1058.14,57.264L1058.2,57.22L1058.26,57.175L1058.32,57.13L1058.37,57.084L1058.42,57.036L1058.48,56.989L1058.53,56.941L1058.59,56.892L1058.64,56.842L1058.69,56.792L1058.74,56.742L1058.79,56.691L1058.84,56.638L1058.89,56.585L1058.94,56.533L1058.99,56.48L1059.04,56.424L1059.08,56.37L1059.13,56.315L1059.18,56.258L1059.22,56.202L1059.26,56.145L1059.31,56.088L1059.35,56.03L1059.39,55.971L1059.43,55.912L1059.48,55.852L1059.52,55.792L1059.56,55.731L1059.59,55.67L1059.63,55.609L1059.67,55.547L1059.71,55.484L1059.74,55.421L1059.78,55.357L1059.81,55.294L1059.84,55.229L1059.88,55.164L1059.91,55.099L1059.94,55.033L1059.97,54.967L1060,54.9L1060.03,54.834L1060.06,54.766L1060.08,54.698L1060.11,54.63L1060.14,54.562L1060.16,54.493L1060.18,54.423L1060.21,54.354L1060.23,54.284L1060.25,54.212L1060.27,54.142L1060.29,54.071L1060.31,54L1060.33,53.927L1060.35,53.855L1060.36,53.783L1060.38,53.71L1060.39,53.636L1060.41,53.563L1060.42,53.489L1060.43,53.414L1060.44,53.34L1060.45,53.265L1060.46,53.19L1060.47,53.115L1060.48,53.039L1060.48,52.963L1060.49,52.887L1060.49,52.81L1060.5,52.732L1060.5,52.656L1060.5,52.578L1060.5,52.5L1060.5,52.422L1060.5,52.344L1060.5,52.268L1060.49,52.191L1060.49,52.113L1060.48,52.037L1060.48,51.961L1060.47,51.885L1060.46,51.81L1060.45,51.735L1060.44,51.66L1060.43,51.585L1060.42,51.511L1060.41,51.437L1060.39,51.363L1060.38,51.29L1060.36,51.217L1060.35,51.145L1060.33,51.073L1060.31,51L1060.29,50.929L1060.27,50.858L1060.25,50.788L1060.23,50.716L1060.21,50.646L1060.18,50.577L1060.16,50.507L1060.14,50.438L1060.11,50.37L1060.08,50.302L1060.06,50.234L1060.03,50.166L1060,50.1L1059.97,50.033L1059.94,49.967L1059.91,49.901L1059.88,49.836L1059.84,49.771L1059.81,49.707L1059.78,49.643L1059.74,49.579L1059.71,49.516L1059.67,49.454L1059.63,49.391L1059.59,49.33L1059.56,49.269L1059.52,49.208L1059.48,49.148L1059.43,49.088L1059.39,49.029L1059.35,48.971L1059.31,48.912L1059.26,48.855L1059.22,48.798L1059.17,48.741L1059.13,48.685L1059.08,48.63L1059.04,48.575L1058.99,48.521L1058.94,48.467L1058.89,48.415L1058.84,48.362L1058.79,48.309L1058.74,48.258L1058.69,48.208L1058.64,48.157L1058.59,48.108L1058.53,48.06L1058.48,48.011L1058.42,47.964L1058.37,47.917L1058.32,47.87L1058.26,47.825L1058.2,47.78L1058.14,47.736L1058.09,47.692L1058.03,47.649L1057.97,47.607L1057.91,47.566L1057.85,47.524L1057.79,47.484L1057.73,47.445L1057.67,47.406L1057.61,47.369L1057.55,47.331L1057.48,47.294L1057.42,47.259L1057.36,47.224L1057.29,47.189L1057.23,47.156L1057.16,47.123L1057.1,47.091L1057.03,47.06L1056.97,47.03L1056.9,47L1056.83,46.971L1056.77,46.943L1056.7,46.916L1056.63,46.889L1056.56,46.864L1056.49,46.839L1056.42,46.815L1056.35,46.792L1056.28,46.77L1056.21,46.748L1056.14,46.727L1056.07,46.708L1056,46.689L1055.93,46.671L1055.86,46.654L1055.78,46.638L1055.71,46.622L1055.64,46.608L1055.56,46.594L1055.49,46.581L1055.41,46.569L1055.34,46.558L1055.27,46.548L1055.19,46.539L1055.12,46.531L1055.04,46.524L1054.96,46.518L1054.89,46.512L1054.81,46.508L1054.73,46.504L1054.66,46.502L1054.58,46.501L1054.5,46.5L1054.42,46.501Z"/>
                </g>
                <g transform="matrix(1.05,0,0,0.986667,62.925,1115.19)">
                    <path d="M1054.62,43.501L1054.73,43.503L1054.85,43.507L1054.96,43.512L1055.08,43.518L1055.19,43.526L1055.31,43.536L1055.42,43.546L1055.53,43.559L1055.64,43.572L1055.76,43.587L1055.87,43.604L1055.98,43.622L1056.09,43.641L1056.2,43.661L1056.31,43.683L1056.42,43.706L1056.53,43.731L1056.64,43.757L1056.75,43.784L1056.86,43.812L1056.96,43.842L1057.07,43.873L1057.17,43.905L1057.28,43.939L1057.39,43.974L1057.49,44.01L1057.59,44.047L1057.7,44.085L1057.8,44.125L1057.9,44.166L1058,44.208L1058.1,44.252L1058.2,44.296L1058.3,44.342L1058.4,44.389L1058.5,44.437L1058.6,44.486L1058.69,44.536L1058.79,44.588L1058.88,44.64L1058.98,44.694L1059.07,44.749L1059.17,44.804L1059.26,44.862L1059.35,44.92L1059.44,44.979L1059.53,45.039L1059.62,45.1L1059.71,45.162L1059.8,45.225L1059.88,45.29L1059.97,45.355L1060.06,45.421L1060.14,45.489L1060.22,45.557L1060.31,45.626L1060.39,45.697L1060.47,45.767L1060.55,45.839L1060.63,45.913L1060.71,45.986L1060.79,46.061L1060.86,46.137L1060.94,46.214L1061.01,46.292L1061.09,46.37L1061.16,46.449L1061.23,46.529L1061.3,46.611L1061.37,46.693L1061.44,46.776L1061.51,46.86L1061.58,46.944L1061.64,47.029L1061.71,47.115L1061.77,47.202L1061.84,47.29L1061.9,47.379L1061.96,47.468L1062.02,47.558L1062.08,47.649L1062.14,47.741L1062.19,47.833L1062.25,47.926L1062.31,48.02L1062.36,48.115L1062.41,48.21L1062.46,48.306L1062.51,48.403L1062.56,48.501L1062.61,48.598L1062.66,48.696L1062.7,48.797L1062.75,48.897L1062.79,48.997L1062.83,49.098L1062.88,49.2L1062.91,49.303L1062.95,49.407L1062.99,49.51L1063.03,49.615L1063.06,49.72L1063.1,49.825L1063.13,49.931L1063.16,50.038L1063.19,50.144L1063.22,50.252L1063.24,50.361L1063.27,50.469L1063.29,50.578L1063.32,50.688L1063.34,50.798L1063.36,50.909L1063.38,51.02L1063.4,51.131L1063.41,51.244L1063.43,51.356L1063.44,51.469L1063.45,51.582L1063.46,51.695L1063.47,51.809L1063.48,51.924L1063.49,52.038L1063.49,52.153L1063.5,52.269L1063.5,52.384L1063.5,52.5L1063.5,52.616L1063.5,52.731L1063.49,52.847L1063.49,52.962L1063.48,53.076L1063.47,53.191L1063.46,53.305L1063.45,53.418L1063.44,53.531L1063.43,53.644L1063.41,53.756L1063.4,53.869L1063.38,53.98L1063.36,54.091L1063.34,54.201L1063.32,54.312L1063.29,54.422L1063.27,54.531L1063.24,54.639L1063.22,54.748L1063.19,54.856L1063.16,54.962L1063.13,55.069L1063.1,55.175L1063.06,55.281L1063.03,55.385L1062.99,55.49L1062.95,55.594L1062.91,55.697L1062.88,55.8L1062.83,55.902L1062.79,56.003L1062.75,56.103L1062.7,56.203L1062.66,56.304L1062.61,56.402L1062.56,56.5L1062.51,56.597L1062.46,56.694L1062.41,56.79L1062.36,56.885L1062.31,56.98L1062.25,57.074L1062.19,57.167L1062.14,57.26L1062.08,57.351L1062.02,57.442L1061.96,57.532L1061.9,57.621L1061.84,57.71L1061.77,57.798L1061.71,57.885L1061.64,57.971L1061.58,58.056L1061.51,58.141L1061.44,58.224L1061.37,58.307L1061.3,58.39L1061.23,58.47L1061.16,58.551L1061.09,58.63L1061.01,58.708L1060.94,58.786L1060.86,58.863L1060.79,58.939L1060.71,59.014L1060.63,59.088L1060.55,59.16L1060.47,59.233L1060.39,59.304L1060.31,59.374L1060.22,59.443L1060.14,59.512L1060.06,59.579L1059.97,59.645L1059.88,59.71L1059.8,59.774L1059.71,59.838L1059.62,59.9L1059.53,59.961L1059.44,60.021L1059.35,60.08L1059.26,60.138L1059.17,60.195L1059.07,60.251L1058.98,60.306L1058.88,60.36L1058.79,60.412L1058.69,60.464L1058.6,60.514L1058.5,60.563L1058.4,60.611L1058.3,60.658L1058.2,60.704L1058.1,60.748L1058,60.791L1057.9,60.834L1057.8,60.875L1057.7,60.915L1057.59,60.953L1057.49,60.99L1057.38,61.026L1057.28,61.061L1057.17,61.095L1057.07,61.127L1056.96,61.158L1056.86,61.188L1056.75,61.216L1056.64,61.244L1056.53,61.269L1056.42,61.294L1056.31,61.317L1056.2,61.339L1056.09,61.359L1055.98,61.379L1055.87,61.396L1055.76,61.413L1055.64,61.428L1055.53,61.441L1055.42,61.454L1055.31,61.464L1055.19,61.474L1055.08,61.482L1054.96,61.488L1054.85,61.493L1054.73,61.497L1054.62,61.499L1054.5,61.5L1054.38,61.499L1054.27,61.497L1054.15,61.493L1054.04,61.488L1053.92,61.482L1053.81,61.474L1053.69,61.464L1053.58,61.454L1053.47,61.441L1053.36,61.428L1053.24,61.413L1053.13,61.396L1053.02,61.379L1052.91,61.359L1052.8,61.339L1052.69,61.317L1052.58,61.294L1052.47,61.269L1052.36,61.244L1052.25,61.216L1052.14,61.188L1052.04,61.158L1051.93,61.127L1051.83,61.095L1051.72,61.061L1051.62,61.026L1051.51,60.99L1051.41,60.953L1051.3,60.914L1051.2,60.875L1051.1,60.834L1051,60.791L1050.9,60.748L1050.8,60.704L1050.7,60.658L1050.6,60.611L1050.5,60.563L1050.4,60.514L1050.31,60.464L1050.21,60.412L1050.12,60.36L1050.02,60.306L1049.93,60.251L1049.83,60.195L1049.74,60.138L1049.65,60.08L1049.56,60.021L1049.47,59.961L1049.38,59.9L1049.29,59.838L1049.2,59.774L1049.12,59.71L1049.03,59.645L1048.94,59.579L1048.86,59.512L1048.78,59.443L1048.69,59.374L1048.61,59.304L1048.53,59.233L1048.45,59.16L1048.37,59.088L1048.29,59.014L1048.21,58.939L1048.14,58.863L1048.06,58.786L1047.99,58.708L1047.91,58.63L1047.84,58.55L1047.77,58.47L1047.7,58.39L1047.63,58.307L1047.56,58.224L1047.49,58.141L1047.42,58.056L1047.36,57.971L1047.29,57.885L1047.22,57.797L1047.16,57.71L1047.1,57.621L1047.04,57.532L1046.98,57.442L1046.92,57.351L1046.86,57.26L1046.8,57.166L1046.75,57.074L1046.69,56.98L1046.64,56.885L1046.59,56.79L1046.54,56.694L1046.49,56.597L1046.44,56.5L1046.39,56.402L1046.34,56.303L1046.3,56.204L1046.25,56.104L1046.21,56.003L1046.17,55.902L1046.13,55.8L1046.09,55.697L1046.05,55.594L1046.01,55.49L1045.97,55.386L1045.94,55.281L1045.9,55.174L1045.87,55.07L1045.84,54.963L1045.81,54.855L1045.78,54.747L1045.76,54.64L1045.73,54.531L1045.71,54.421L1045.68,54.312L1045.66,54.201L1045.64,54.091L1045.62,53.98L1045.6,53.869L1045.59,53.756L1045.57,53.644L1045.56,53.531L1045.55,53.418L1045.54,53.305L1045.53,53.19L1045.52,53.076L1045.51,52.962L1045.51,52.847L1045.5,52.731L1045.5,52.616L1045.5,52.5L1045.5,52.384L1045.5,52.269L1045.51,52.153L1045.51,52.038L1045.52,51.924L1045.53,51.81L1045.54,51.695L1045.55,51.582L1045.56,51.469L1045.57,51.356L1045.59,51.244L1045.6,51.131L1045.62,51.02L1045.64,50.909L1045.66,50.798L1045.68,50.688L1045.71,50.579L1045.73,50.469L1045.76,50.36L1045.78,50.253L1045.81,50.145L1045.84,50.037L1045.87,49.93L1045.9,49.825L1045.94,49.72L1045.97,49.614L1046.01,49.51L1046.05,49.407L1046.09,49.303L1046.13,49.2L1046.17,49.099L1046.21,48.997L1046.25,48.896L1046.3,48.796L1046.34,48.697L1046.39,48.598L1046.44,48.5L1046.49,48.403L1046.54,48.306L1046.59,48.21L1046.64,48.115L1046.69,48.02L1046.75,47.926L1046.8,47.834L1046.86,47.741L1046.92,47.649L1046.98,47.558L1047.04,47.468L1047.1,47.379L1047.16,47.29L1047.23,47.202L1047.29,47.115L1047.36,47.029L1047.42,46.944L1047.49,46.859L1047.56,46.776L1047.63,46.693L1047.7,46.611L1047.77,46.53L1047.84,46.45L1047.91,46.369L1047.99,46.291L1048.06,46.214L1048.14,46.137L1048.21,46.061L1048.29,45.987L1048.37,45.913L1048.45,45.839L1048.53,45.767L1048.61,45.696L1048.69,45.626L1048.78,45.557L1048.86,45.489L1048.94,45.421L1049.03,45.355L1049.12,45.29L1049.2,45.226L1049.29,45.162L1049.38,45.1L1049.47,45.039L1049.56,44.979L1049.65,44.92L1049.74,44.861L1049.83,44.804L1049.93,44.749L1050.02,44.694L1050.12,44.64L1050.21,44.588L1050.31,44.536L1050.4,44.486L1050.5,44.437L1050.6,44.389L1050.7,44.342L1050.8,44.296L1050.9,44.252L1051,44.208L1051.1,44.166L1051.2,44.125L1051.3,44.086L1051.41,44.047L1051.51,44.01L1051.61,43.974L1051.72,43.939L1051.83,43.905L1051.93,43.873L1052.04,43.842L1052.14,43.812L1052.25,43.784L1052.36,43.757L1052.47,43.731L1052.58,43.706L1052.69,43.683L1052.8,43.661L1052.91,43.641L1053.02,43.622L1053.13,43.604L1053.24,43.587L1053.36,43.572L1053.47,43.559L1053.58,43.546L1053.69,43.536L1053.81,43.526L1053.92,43.518L1054.04,43.512L1054.15,43.507L1054.27,43.503L1054.38,43.501L1054.5,43.5L1054.62,43.501ZM1054.42,46.501L1054.34,46.502L1054.27,46.504L1054.19,46.508L1054.11,46.512L1054.04,46.518L1053.96,46.524L1053.88,46.531L1053.81,46.539L1053.74,46.548L1053.66,46.558L1053.59,46.569L1053.51,46.581L1053.44,46.594L1053.36,46.608L1053.29,46.622L1053.22,46.638L1053.14,46.654L1053.07,46.671L1053,46.689L1052.93,46.708L1052.86,46.727L1052.79,46.748L1052.72,46.77L1052.65,46.792L1052.58,46.815L1052.51,46.839L1052.44,46.864L1052.37,46.889L1052.3,46.916L1052.23,46.943L1052.17,46.971L1052.1,47L1052.03,47.03L1051.97,47.06L1051.9,47.091L1051.84,47.123L1051.77,47.156L1051.71,47.189L1051.64,47.224L1051.58,47.259L1051.52,47.294L1051.45,47.331L1051.39,47.369L1051.33,47.406L1051.27,47.445L1051.21,47.484L1051.15,47.524L1051.09,47.566L1051.03,47.607L1050.97,47.649L1050.91,47.692L1050.86,47.736L1050.8,47.78L1050.74,47.825L1050.68,47.87L1050.63,47.917L1050.58,47.964L1050.52,48.011L1050.47,48.06L1050.41,48.108L1050.36,48.157L1050.31,48.208L1050.26,48.258L1050.21,48.309L1050.16,48.362L1050.11,48.415L1050.06,48.467L1050.01,48.521L1049.96,48.575L1049.92,48.63L1049.87,48.685L1049.83,48.741L1049.78,48.798L1049.74,48.855L1049.69,48.912L1049.65,48.971L1049.61,49.029L1049.57,49.088L1049.52,49.148L1049.48,49.208L1049.44,49.269L1049.41,49.33L1049.37,49.391L1049.33,49.454L1049.29,49.516L1049.26,49.579L1049.22,49.643L1049.19,49.707L1049.16,49.771L1049.12,49.836L1049.09,49.901L1049.06,49.967L1049.03,50.033L1049,50.1L1048.97,50.166L1048.94,50.234L1048.92,50.302L1048.89,50.37L1048.86,50.438L1048.84,50.507L1048.82,50.577L1048.79,50.646L1048.77,50.716L1048.75,50.788L1048.73,50.858L1048.71,50.929L1048.69,51L1048.67,51.073L1048.65,51.145L1048.64,51.217L1048.62,51.29L1048.61,51.363L1048.59,51.437L1048.58,51.511L1048.57,51.585L1048.56,51.66L1048.55,51.735L1048.54,51.81L1048.53,51.885L1048.52,51.961L1048.52,52.037L1048.51,52.113L1048.51,52.191L1048.5,52.268L1048.5,52.344L1048.5,52.422L1048.5,52.5L1048.5,52.578L1048.5,52.656L1048.5,52.732L1048.51,52.81L1048.51,52.887L1048.52,52.963L1048.52,53.039L1048.53,53.115L1048.54,53.19L1048.55,53.265L1048.56,53.34L1048.57,53.414L1048.58,53.489L1048.59,53.563L1048.61,53.636L1048.62,53.71L1048.64,53.783L1048.65,53.855L1048.67,53.927L1048.69,54L1048.71,54.071L1048.73,54.142L1048.75,54.212L1048.77,54.284L1048.79,54.354L1048.82,54.423L1048.84,54.493L1048.86,54.562L1048.89,54.63L1048.92,54.698L1048.94,54.766L1048.97,54.834L1049,54.9L1049.03,54.967L1049.06,55.033L1049.09,55.099L1049.12,55.164L1049.16,55.229L1049.19,55.294L1049.22,55.357L1049.26,55.421L1049.29,55.484L1049.33,55.547L1049.37,55.609L1049.41,55.67L1049.44,55.731L1049.48,55.792L1049.52,55.852L1049.57,55.912L1049.61,55.971L1049.65,56.03L1049.69,56.088L1049.74,56.145L1049.78,56.202L1049.82,56.258L1049.87,56.315L1049.92,56.37L1049.96,56.424L1050.01,56.48L1050.06,56.533L1050.11,56.585L1050.16,56.638L1050.21,56.691L1050.26,56.742L1050.31,56.792L1050.36,56.842L1050.41,56.892L1050.47,56.941L1050.52,56.989L1050.58,57.036L1050.63,57.084L1050.68,57.13L1050.74,57.175L1050.8,57.22L1050.86,57.264L1050.91,57.308L1050.97,57.351L1051.03,57.393L1051.09,57.434L1051.15,57.475L1051.21,57.516L1051.27,57.555L1051.33,57.594L1051.39,57.632L1051.45,57.669L1051.52,57.706L1051.58,57.741L1051.64,57.776L1051.71,57.811L1051.77,57.844L1051.84,57.877L1051.9,57.909L1051.97,57.94L1052.03,57.97L1052.1,58L1052.17,58.029L1052.23,58.057L1052.3,58.084L1052.37,58.111L1052.44,58.136L1052.51,58.161L1052.58,58.185L1052.65,58.208L1052.72,58.23L1052.79,58.252L1052.86,58.272L1052.93,58.292L1053,58.311L1053.07,58.329L1053.14,58.346L1053.22,58.363L1053.29,58.378L1053.36,58.393L1053.44,58.406L1053.51,58.419L1053.59,58.431L1053.66,58.442L1053.73,58.452L1053.81,58.461L1053.88,58.469L1053.96,58.476L1054.04,58.482L1054.11,58.488L1054.19,58.492L1054.27,58.496L1054.34,58.498L1054.42,58.499L1054.5,58.5L1054.58,58.499L1054.66,58.498L1054.73,58.496L1054.81,58.492L1054.89,58.488L1054.96,58.482L1055.04,58.476L1055.12,58.469L1055.19,58.461L1055.27,58.452L1055.34,58.442L1055.41,58.431L1055.49,58.419L1055.56,58.406L1055.64,58.393L1055.71,58.378L1055.78,58.363L1055.86,58.346L1055.93,58.329L1056,58.311L1056.07,58.292L1056.14,58.272L1056.21,58.252L1056.28,58.23L1056.35,58.208L1056.42,58.185L1056.49,58.161L1056.56,58.136L1056.63,58.111L1056.7,58.084L1056.77,58.057L1056.83,58.029L1056.9,58L1056.97,57.97L1057.03,57.94L1057.1,57.909L1057.16,57.877L1057.23,57.844L1057.29,57.81L1057.36,57.776L1057.42,57.741L1057.48,57.706L1057.55,57.669L1057.61,57.632L1057.67,57.594L1057.73,57.555L1057.79,57.516L1057.85,57.475L1057.91,57.435L1057.97,57.393L1058.03,57.351L1058.09,57.308L1058.14,57.264L1058.2,57.22L1058.26,57.175L1058.32,57.13L1058.37,57.084L1058.42,57.037L1058.48,56.989L1058.53,56.941L1058.59,56.892L1058.64,56.842L1058.69,56.792L1058.74,56.742L1058.79,56.691L1058.84,56.639L1058.89,56.586L1058.94,56.533L1058.99,56.479L1059.04,56.424L1059.08,56.37L1059.13,56.315L1059.17,56.259L1059.22,56.202L1059.26,56.145L1059.31,56.088L1059.35,56.029L1059.39,55.971L1059.43,55.912L1059.47,55.852L1059.52,55.792L1059.56,55.731L1059.59,55.67L1059.63,55.609L1059.67,55.547L1059.71,55.484L1059.74,55.421L1059.78,55.357L1059.81,55.294L1059.84,55.229L1059.88,55.164L1059.91,55.099L1059.94,55.033L1059.97,54.968L1060,54.901L1060.03,54.833L1060.06,54.765L1060.08,54.698L1060.11,54.63L1060.14,54.562L1060.16,54.493L1060.18,54.423L1060.21,54.354L1060.23,54.283L1060.25,54.213L1060.27,54.142L1060.29,54.071L1060.31,53.999L1060.33,53.928L1060.35,53.855L1060.36,53.782L1060.38,53.71L1060.39,53.636L1060.41,53.563L1060.42,53.489L1060.43,53.414L1060.44,53.34L1060.45,53.266L1060.46,53.19L1060.47,53.115L1060.48,53.039L1060.48,52.963L1060.49,52.887L1060.49,52.81L1060.5,52.733L1060.5,52.656L1060.5,52.578L1060.5,52.5L1060.5,52.422L1060.5,52.344L1060.5,52.267L1060.49,52.191L1060.49,52.113L1060.48,52.037L1060.48,51.961L1060.47,51.885L1060.46,51.81L1060.45,51.734L1060.44,51.66L1060.43,51.585L1060.42,51.511L1060.41,51.437L1060.39,51.363L1060.38,51.29L1060.36,51.218L1060.35,51.145L1060.33,51.072L1060.31,51.001L1060.29,50.929L1060.27,50.858L1060.25,50.787L1060.23,50.717L1060.21,50.646L1060.18,50.577L1060.16,50.507L1060.14,50.438L1060.11,50.37L1060.08,50.302L1060.06,50.234L1060.03,50.167L1060,50.099L1059.97,50.033L1059.94,49.967L1059.91,49.901L1059.88,49.835L1059.84,49.771L1059.81,49.707L1059.78,49.643L1059.74,49.579L1059.71,49.516L1059.67,49.454L1059.63,49.391L1059.59,49.33L1059.56,49.269L1059.52,49.208L1059.47,49.148L1059.43,49.088L1059.39,49.029L1059.35,48.971L1059.31,48.912L1059.26,48.855L1059.22,48.798L1059.17,48.741L1059.13,48.685L1059.08,48.63L1059.04,48.575L1058.99,48.521L1058.94,48.467L1058.89,48.414L1058.84,48.362L1058.79,48.309L1058.74,48.258L1058.69,48.208L1058.64,48.158L1058.59,48.108L1058.53,48.06L1058.48,48.012L1058.42,47.963L1058.37,47.917L1058.32,47.87L1058.26,47.824L1058.2,47.78L1058.14,47.736L1058.09,47.692L1058.03,47.649L1057.97,47.607L1057.91,47.565L1057.85,47.524L1057.79,47.484L1057.73,47.445L1057.67,47.406L1057.61,47.369L1057.55,47.331L1057.48,47.294L1057.42,47.259L1057.36,47.224L1057.29,47.19L1057.23,47.156L1057.16,47.123L1057.1,47.091L1057.03,47.06L1056.97,47.03L1056.9,47L1056.83,46.971L1056.77,46.943L1056.7,46.916L1056.63,46.889L1056.56,46.864L1056.49,46.839L1056.42,46.815L1056.35,46.792L1056.28,46.77L1056.21,46.748L1056.14,46.727L1056.07,46.708L1056,46.689L1055.93,46.671L1055.86,46.654L1055.78,46.638L1055.71,46.622L1055.64,46.608L1055.56,46.594L1055.49,46.581L1055.41,46.569L1055.34,46.558L1055.27,46.548L1055.19,46.539L1055.12,46.531L1055.04,46.524L1054.96,46.518L1054.89,46.512L1054.81,46.508L1054.73,46.504L1054.66,46.502L1054.58,46.501L1054.5,46.5L1054.42,46.501Z"/>
                </g>
                <g transform="matrix(1.575,0,0,1.48,-502.5,1093.97)">
                    <rect x="1036" y="39" width="2" height="2"/>
                </g>
            </g>
        </g>
    </g>
</svg>
